<?xml version="1.0" encoding="utf-8"?>
<!-- Generator: Adobe Illustrator 24.1.1, SVG Export Plug-In . SVG Version: 6.00 Build 0)  -->
<svg version="1.1" id="Layer_1" xmlns="http://www.w3.org/2000/svg" xmlns:xlink="http://www.w3.org/1999/xlink" width="251px" height="50px" x="0px" y="0px"
	 viewBox="134.1 381.1 345 30">
<style type="text/css">
	.st0{fill:#25AAE1;}
	.st1{fill:#423F42;}
	.st2{fill:#FFFFFF;}
</style>
<g>
	<path class="st0" d="M472.26,362c0,0-4.26,5.93,2.6,18c0,0-3.01-2.03-12.02-0.8c0,0,0.49-1.33-1.63-0.65
		c-2.12,0.68-3.23-0.12-3.3,1.25c0,0-6.4,1.43-7.19,1.63c-1.87,0.48-4.57-4.55-2.32-7.4C450.45,371.43,457.46,375.47,472.26,362
		L472.26,362z"/>
	<path class="st1" d="M435.16,368.5c2.12-1.34,1.44-4.28,1.44-4.28s-0.07,1.09-1.27,2.81c-0.01-2.06-0.82-4.36-0.82-4.36
		c0.2,3.12-1.52,4.58-1.52,4.58c0.41-1.2-0.11-2.73-0.11-2.73c0.29,4.23-7.09,5.82-8.2,10.88c-0.97,4.43,3.94,7.62,5.24,8.62
		c1.3,1,2.44,3.25,2.59,3.5c0.15,0.25,0.28-0.1,0.28-0.1s1.37-1.32,1.14-3.75c-0.21-1.07-1.37-1.98-1.37-1.98s-1.79-0.65-1.92-2.42
		c-0.14-1.77,1.56-1.4,2.09-1.22c0.52,0.18,0.2,1.23,1.96,2.49c1.76,1.26,1.5-0.71,0.92-1.21c-0.59-0.5-1.18-0.93-1.7-2.37
		c-0.52-1.43-0.91-3.7-2.39-4.2C430.03,372.27,435.16,368.5,435.16,368.5L435.16,368.5z"/>
	<path class="st1" d="M424.67,375.47c1.11-5.07,8.5-6.65,8.2-10.88c0,0,0.52,1.53,0.11,2.73c0,0,1.72-1.47,1.52-4.58
		c0,0,0.81,2.29,0.82,4.35c1.2-1.72,1.27-2.8,1.27-2.8s0.68,2.94-1.44,4.28c1.8,1.74,3.67,2.49,3.5,3.74
		c-0.17,1.25,3.53,3.83,3.06,4.43c-0.47,0.6-0.91,0.7-0.91,0.7s1.35,1.42,1.27,1.8c-0.07,0.38-2.03,1.35-2.03,1.35
		s-0.56,0.4,0.1,0.63c0.13,0.04,0.29,0.06,0.47,0.06c0.52,0,1.21-0.13,1.69-0.13c0.23,0,0.41,0.03,0.49,0.12
		c0.32,0.35-0.42,0.55,0.1,1c0.51,0.45,1.3,1.5,0.47,2.55c-0.83,1.05-3.11,1.32-3.58,2.42c-0.28,0.67-0.59,3.26,0.2,4.48
		c0.51,0.79,2.06,0.3,2.4,0.73c0,0-0.04-0.01-0.1-0.01c-0.24,0-0.84,0.09-1.22,0.96c-0.22,0.5-0.91,0.98-2.07,0.98
		c-1.38,0-3.44-0.68-6.22-2.83c0,0,0.25-2.5,0-4.05c0,0-0.07,0.19-0.17,0.19c-0.03,0-0.07-0.02-0.11-0.09
		c-0.15-0.25-1.29-2.5-2.59-3.5C428.61,383.08,423.7,379.9,424.67,375.47L424.67,375.47z M436.18,366.48L436.18,366.48
		c-0.15,0.26-0.32,0.54-0.53,0.84l-0.58,0.83C435.7,367.7,436.03,367.08,436.18,366.48L436.18,366.48z M429.77,383.48L429.77,383.48
		c0.15,0.11,0.28,0.2,0.38,0.28c1.05,0.81,1.97,2.33,2.43,3.14l0.36-0.96l0.23,1.47c0.21,1.32,0.08,3.27,0.02,3.93
		c2.84,2.16,4.72,2.62,5.81,2.62c1.02,0,1.55-0.4,1.71-0.75c0.11-0.26,0.25-0.46,0.39-0.62c-0.54-0.04-1.11-0.16-1.43-0.67
		c-0.9-1.4-0.52-4.16-0.23-4.85c0.31-0.73,1.17-1.13,2.01-1.51c0.64-0.29,1.3-0.6,1.63-1.01c0.71-0.89-0.14-1.75-0.42-1.99
		c-0.48-0.42-0.32-0.82-0.22-1.02c-0.03,0-0.07,0-0.12,0c-0.21,0-0.48,0.03-0.76,0.06c-0.31,0.03-0.64,0.07-0.93,0.07
		c-0.24,0-0.43-0.03-0.59-0.08c-0.44-0.15-0.56-0.4-0.58-0.59c-0.06-0.41,0.31-0.69,0.39-0.75l0.02-0.02l0.03-0.01
		c0.71-0.35,1.54-0.84,1.79-1.07c-0.13-0.26-0.62-0.89-1.14-1.44l-0.49-0.51l0.68-0.15c0.01,0,0.3-0.09,0.63-0.48
		c-0.12-0.27-0.74-0.91-1.15-1.34c-1.01-1.04-2.05-2.11-1.93-2.97c0.08-0.57-0.53-1.07-1.6-1.9c-0.54-0.42-1.16-0.9-1.78-1.49
		l-0.37-0.36l0.42-0.27l-0.01-1.14c0-0.7-0.11-1.44-0.24-2.1c-0.44,1.73-1.41,2.58-1.46,2.63l-1.09,0.93l0.47-1.37
		c0.04-0.1,0.06-0.21,0.08-0.32c-0.7,1.2-1.96,2.2-3.26,3.24c-1.9,1.52-3.87,3.1-4.39,5.45
		C424.22,379.37,428.11,382.25,429.77,383.48L429.77,383.48z"/>
	<path class="st1" d="M453.27,395.13c2.16,0.08,4.04,0.81,4.72,1.1c0.07-1.04,0.32-4.53,0.88-5.97c0.79-2.04,1.06-5.08,0.24-5.59
		c-1.85-1.18-2.18-2.99-2.2-3.07l-0.1-0.59l-0.35-0.99l1.25-0.28c0.07-0.96,0.68-1,1.46-1.05c0.52-0.03,1.17-0.07,1.97-0.33
		c0.89-0.29,1.46-0.27,1.76,0.04c0.16,0.17,0.19,0.39,0.18,0.57c0.48-0.06,1.45-0.17,1.78-0.2l0.08-0.01l0.06,0.05
		c0.04,0.04,1.01,0.9,0.6,2.04c-0.3,0.84-0.47,1.12-0.71,1.2c-0.01,0-0.03,0.01-0.04,0.01c0.1,0.41,0.16,1.08-0.31,1.46
		c-0.13,0.1-0.23,0.21-0.32,0.31c-0.15,0.16-0.29,0.32-0.51,0.44c0.26,0.7,1.13,3.42,1.32,8.5c0.04,1.19-0.11,2.57-0.27,4.03
		c-0.17,1.53-0.35,3.11-0.35,4.78c0,0.24,0.01,0.46,0.01,0.67c0.05,2-0.11,2.26-4.31,2.55c-1.34,0.09-2.63,0.12-3.68,0.12
		c-1.44,0-2.41-0.05-2.43-0.05l0.02-0.4c0.03,0,2.88,0.15,6.05-0.07c3.99-0.27,3.98-0.41,3.94-2.14c0-0.2-0.01-0.43-0.01-0.68
		c0-1.69,0.19-3.35,0.35-4.82c0.16-1.44,0.31-2.81,0.27-3.97c-0.19-4.97-1.05-7.69-1.3-8.37c-0.26,0.07-0.6,0.13-1.07,0.14
		c-0.11,0-0.2-0.08-0.2-0.19c0-0.11,0.08-0.2,0.19-0.21c1.17-0.04,1.39-0.28,1.68-0.6c0.1-0.11,0.21-0.23,0.36-0.36
		c0.47-0.38,0.09-1.33,0.09-1.34l-0.25-0.62l0.54,0.38c0.06,0.04,0.09,0.05,0.1,0.05c0.09-0.03,0.25-0.35,0.46-0.95
		c0.27-0.75-0.25-1.36-0.43-1.54c-0.13,0.01-0.33,0.03-0.54,0.06c0.01,0.01,0.02,0.03,0.02,0.04c0.05,0.1,0.11,0.22,0.16,0.36
		c0.05,0.14,0.1,0.28,0.11,0.45c0,0.09-0.01,0.16-0.03,0.24c-0.02,0.08-0.04,0.15-0.06,0.21c-0.05,0.13-0.1,0.25-0.15,0.35
		c-0.1,0.2-0.18,0.32-0.18,0.32s0.06-0.14,0.12-0.34c0.03-0.1,0.06-0.23,0.09-0.36c0.01-0.07,0.02-0.13,0.02-0.2
		c0-0.06,0-0.14-0.01-0.19c-0.03-0.12-0.09-0.25-0.16-0.36c-0.07-0.11-0.14-0.21-0.2-0.3c-0.06-0.08-0.1-0.13-0.14-0.18
		c-0.16,0.02-0.33,0.04-0.47,0.06c0.03,0.06,0.06,0.13,0.1,0.2c0.06,0.14,0.14,0.3,0.19,0.49c0.02,0.1,0.05,0.2,0.04,0.32
		c-0.01,0.1-0.01,0.2-0.03,0.3c-0.05,0.4-0.14,0.8-0.3,1.05c-0.08,0.13-0.19,0.21-0.27,0.23c-0.04,0.01-0.07,0.02-0.1,0.02
		c-0.02,0-0.03,0-0.03,0s0.01,0,0.03,0c0.02,0,0.05-0.01,0.09-0.03c0.08-0.03,0.16-0.12,0.23-0.25c0.12-0.26,0.17-0.65,0.17-1.04
		c0-0.1,0-0.19-0.01-0.29c-0.01-0.07-0.04-0.16-0.07-0.23c-0.07-0.16-0.15-0.3-0.23-0.42c-0.08-0.12-0.15-0.21-0.2-0.28
		c-0.01-0.01-0.02-0.02-0.03-0.03c-0.02,0-0.03,0-0.04,0.01c-0.06,0.09-0.16,0.25-0.3,0.44c0,0,0,0,0,0
		c0.02,0.07,0.04,0.19,0.07,0.35c0.02,0.12,0.04,0.26,0.06,0.42c0.01,0.08,0.01,0.16,0.01,0.24c0,0.04,0,0.09,0,0.13
		c-0.01,0.05-0.01,0.09-0.02,0.13c-0.03,0.15-0.06,0.32-0.12,0.47c-0.03,0.07-0.07,0.14-0.13,0.2c-0.05,0.05-0.11,0.09-0.17,0.12
		c-0.06,0.02-0.11,0.04-0.16,0.04c-0.05,0-0.09,0.01-0.13,0.01c-0.07,0-0.11-0.01-0.11-0.01s0.04,0,0.11-0.01
		c0.03,0,0.07-0.02,0.12-0.03c0.04-0.02,0.09-0.03,0.14-0.06c0.05-0.03,0.09-0.07,0.13-0.12c0.04-0.05,0.06-0.11,0.08-0.18
		c0.04-0.14,0.04-0.29,0.04-0.45c0-0.08,0-0.14-0.01-0.22c-0.01-0.07-0.03-0.15-0.05-0.22c-0.04-0.14-0.08-0.27-0.12-0.38
		c-0.01-0.02-0.02-0.05-0.02-0.07c-0.04,0.05-0.08,0.1-0.12,0.16c-0.08,0.09-0.16,0.19-0.25,0.28l-0.08,0.08l-0.07,0.06
		c-0.03,0.02-0.05,0.04-0.08,0.06l-0.1,0.05c-0.13,0.07-0.27,0.09-0.4,0.09c-0.13-0.01-0.26-0.04-0.37-0.07
		c-0.11-0.04-0.22-0.08-0.32-0.12c-0.1-0.04-0.19-0.08-0.28-0.12c-0.17-0.08-0.31-0.14-0.41-0.18c-0.1-0.04-0.17-0.02-0.17-0.02
		s0.02,0,0.04-0.01c0.03,0,0.07,0,0.13,0.01c0.11,0.02,0.26,0.08,0.43,0.13c0.18,0.06,0.38,0.13,0.61,0.18
		c0.11,0.03,0.23,0.04,0.34,0.03c0.11-0.01,0.22-0.04,0.31-0.1l0.07-0.04c0.02-0.02,0.05-0.04,0.07-0.06l0.07-0.06
		c0.01-0.01,0.03-0.04,0.05-0.06c0.08-0.09,0.14-0.19,0.21-0.28c0.13-0.19,0.24-0.38,0.33-0.54c0.15-0.26,0.25-0.46,0.28-0.52
		c0.01-0.04,0.09-0.31-0.04-0.45c-0.08-0.09-0.37-0.25-1.35,0.07c-0.85,0.27-1.55,0.32-2.06,0.35c-0.86,0.05-1.07,0.09-1.1,0.71
		c0.01,0.16,0.14,1.72,0.44,2.35l0.13,0.28l-0.3,0.01c-0.03,0-0.43,0-0.84-0.22c0.26,0.6,0.78,1.46,1.79,2.11
		c1.2,0.75,0.58,4.35-0.08,6.08c-0.62,1.6-0.87,6.09-0.87,6.14l-0.02,0.3l-0.26-0.13c-0.02-0.01-2.25-1.08-4.82-1.18
		c-0.11,0-0.19-0.1-0.19-0.21C453.07,395.22,453.16,395.12,453.27,395.13L453.27,395.13z M457.04,381.1L457.04,381.1l0.22,0.36
		c0.21,0.34,0.55,0.48,0.79,0.54c-0.21-0.68-0.31-1.7-0.34-2.05l-1,0.22L457.04,381.1L457.04,381.1z"/>
	<path class="st1" d="M473.57,369.37c-0.4-3.62,0.46-5.89,0.92-6.89c0.96-2.09,4.55,10.12,3.9,17.25c-0.19,2.09-1.02,0.27-1.02,0.27
		c-1.31-2.31-2.22-4.39-2.82-6.24C474.54,373.76,477.11,370.76,473.57,369.37L473.57,369.37z"/>
	<path class="st0" d="M450.27,410.4c-0.72-2.01-1.03-5.68-1.03-5.68l4.77,1.28v-1.33c0.39-3.8-0.75-9.33-0.75-9.33l-0.37-1.37
		c0,0-1.94,0.88-4.14,0.48c-2.21-0.4-4.12-1.86-6.37-2.01c0,0-0.83-0.15-1.32,0.95c-0.49,1.1-3.19,2.1-8.28-1.85
		c0,0-3.87,2.86-6.61,4.57H338.9v34.27h115.37L450.27,410.4L450.27,410.4z"/>
	<path class="st1" d="M152.12,403.74c-1.25-1.62-3.69-2.82-6-2.82c-2.68,0-5.77,1.29-5.77,4.48c0,3,2.54,3.88,6.23,5.03
		c4.2,1.29,9.56,3.14,9.56,9.56c0,7.02-5.5,10.44-11.91,10.44c-4.25,0-8.63-1.62-11.22-4.66l4.16-3.88c1.62,2.22,4.57,3.6,7.16,3.6
		c2.72,0,5.91-1.34,5.91-4.85c0-3.42-3.42-4.39-7.53-5.68c-3.97-1.25-8.27-3.19-8.27-9.28c0-6.65,6.05-9.6,11.96-9.6
		c3.28,0,7.02,1.15,9.51,3.51L152.12,403.74L152.12,403.74z"/>
	<path class="st1" d="M161.95,396.91h10.67c7.48,0,12.33,2.63,12.33,9.47c0,7.2-5.77,9.7-12.7,9.7h-4.48v13.53h-5.82V396.91
		L161.95,396.91z M171.83,411.18L171.83,411.18c3.79,0,7.25-0.92,7.25-4.8c0-3.88-3.46-4.57-7.06-4.57h-4.25v9.37H171.83
		L171.83,411.18z"/>
	<polygon class="st1" points="190.12,396.91 211.77,396.91 211.77,401.99 195.93,401.99 195.93,410.3 210.94,410.3 210.94,415.19 
		195.93,415.19 195.93,424.43 212.6,424.43 212.6,429.6 190.12,429.6 190.12,396.91 	"/>
	<path class="st1" d="M228.53,396.91h5.03l14.08,32.69H241l-3.05-7.48h-14.18l-2.96,7.48h-6.51L228.53,396.91L228.53,396.91z
		 M235.92,417.13L235.92,417.13l-5.03-13.3l-5.13,13.3H235.92L235.92,417.13z"/>
	<polygon class="st1" points="250.88,396.91 256.7,396.91 256.7,411.04 256.83,411.04 270.5,396.91 278.35,396.91 263.07,412.01 
		279.37,429.6 271.2,429.6 256.83,413.21 256.7,413.21 256.7,429.6 250.88,429.6 250.88,396.91 	"/>
	<polygon class="st1" points="282.69,396.91 304.35,396.91 304.35,401.99 288.51,401.99 288.51,410.3 303.52,410.3 303.52,415.19 
		288.51,415.19 288.51,424.43 305.18,424.43 305.18,429.6 282.69,429.6 282.69,396.91 	"/>
	<path class="st1" d="M310.86,396.91h11.36c6.14,0,12.05,2.45,12.05,9.37c0,4.71-2.91,7.8-7.48,8.82l8.73,14.5h-7.02l-7.57-13.85
		h-4.25v13.85h-5.82V396.91L310.86,396.91z M321.43,410.99L321.43,410.99c3.28,0,7.02-0.78,7.02-4.76c0-3.56-3.51-4.43-6.51-4.43
		h-5.26v9.19H321.43L321.43,410.99z"/>
	<polygon class="st2" points="358.25,416.82 358.1,416.82 352.04,399.74 342.9,399.74 342.9,426.37 348.96,426.37 348.81,407.52 
		348.92,407.52 355.65,426.37 360.17,426.37 367.09,407.52 367.2,407.52 367.05,426.37 373.34,426.37 373.34,399.74 364.04,399.74 
		358.25,416.82 	"/>
	<polygon class="st2" points="385.04,415.35 396.1,415.35 396.1,410.2 385.04,410.2 385.04,405.19 396.74,405.19 396.74,399.74 
		378.83,399.74 378.83,426.37 397.42,426.37 397.42,420.88 385.04,420.88 385.04,415.35 	"/>
	<polygon class="st2" points="407.87,415.35 418.94,415.35 418.94,410.2 407.87,410.2 407.87,405.19 419.58,405.19 419.58,399.74 
		401.67,399.74 401.67,426.37 420.25,426.37 420.25,420.88 407.87,420.88 407.87,415.35 	"/>
	<polygon class="st2" points="421.95,399.74 421.95,405.23 429.47,405.23 429.47,426.37 435.9,426.37 435.9,405.23 443.43,405.23 
		443.43,399.74 421.95,399.74 	"/>
	<path class="st0" d="M457.04,381.1l0.22,0.36c0.21,0.34,0.55,0.48,0.79,0.54c-0.21-0.68-0.31-1.7-0.34-2.05l-1,0.22L457.04,381.1
		L457.04,381.1z"/>
</g>
</svg>
